<svg width="81" height="18" viewBox="0 0 81 18" fill="none" xmlns="http://www.w3.org/2000/svg">
<path d="M12.6445 18L11.4023 13.9219H5.15625L3.91406 18H0L6.04688 0.796875H10.4883L16.5586 18H12.6445ZM10.5352 10.875C9.38672 7.17969 8.73828 5.08984 8.58984 4.60547C8.44922 4.12109 8.34766 3.73828 8.28516 3.45703C8.02734 4.45703 7.28906 6.92969 6.07031 10.875H10.5352ZM18.7266 18V0.867188H22.3594V15H29.3086V18H18.7266ZM35.9297 8.92969H37.125C38.2422 8.92969 39.0781 8.71094 39.6328 8.27344C40.1875 7.82812 40.4648 7.18359 40.4648 6.33984C40.4648 5.48828 40.2305 4.85938 39.7617 4.45312C39.3008 4.04688 38.5742 3.84375 37.582 3.84375H35.9297V8.92969ZM44.1328 6.21094C44.1328 8.05469 43.5547 9.46484 42.3984 10.4414C41.25 11.418 39.6133 11.9062 37.4883 11.9062H35.9297V18H32.2969V0.867188H37.7695C39.8477 0.867188 41.4258 1.31641 42.5039 2.21484C43.5898 3.10547 44.1328 4.4375 44.1328 6.21094ZM61.4062 18H57.7852V10.6055H51V18H47.3672V0.867188H51V7.58203H57.7852V0.867188H61.4062V18ZM76.2305 18L74.9883 13.9219H68.7422L67.5 18H63.5859L69.6328 0.796875H74.0742L80.1445 18H76.2305ZM74.1211 10.875C72.9727 7.17969 72.3242 5.08984 72.1758 4.60547C72.0352 4.12109 71.9336 3.73828 71.8711 3.45703C71.6133 4.45703 70.875 6.92969 69.6562 10.875H74.1211Z" fill="#722F37"/>
</svg>
